<?xml version="1.0" encoding="utf-8"?>
<!-- Generator: Adobe Illustrator 15.1.0, SVG Export Plug-In . SVG Version: 6.00 Build 0)  -->
<!DOCTYPE svg PUBLIC "-//W3C//DTD SVG 1.1//EN" "http://www.w3.org/Graphics/SVG/1.1/DTD/svg11.dtd">
<svg version="1.1" id="Layer_1" xmlns="http://www.w3.org/2000/svg" xmlns:xlink="http://www.w3.org/1999/xlink" x="0px" y="0px"
	 width="85.04px" height="56.689px" viewBox="0 0 85.04 56.689" enable-background="new 0 0 85.04 56.689" xml:space="preserve">
<g>
	<g>
		<path fill="#FFFFFF" d="M85.038,8.975c-4.859,21.596-33.563,19.348-39.684,39.682C32.071,33.597,7.938,29.386,0.002,8.975
			c0-2.834,0-6.141,0-8.975c34.602,0,56.851,0,85.036,0C85.038,1.89,85.038,7.087,85.038,8.975z"/>
		<path fill="#FFFFFF" d="M0.002,0c6.72,17.283,22.055,27.454,35.581,37.93c2.447,1.896,4.737,4.948,6.772,7.255
			C52.103,30.012,80.178,21.597,85.038,0c0,16.063,0,37.627,0,53.688c-28.346,0-56.69,0-85.036,0C0.002,37.627,0.002,16.063,0.002,0
			z"/>
	</g>
</g>
</svg>
